<svg width="290.501" height="95.9" viewBox="0 0 290.501 95.9" xmlns="http://www.w3.org/2000/svg"><g id="svgGroup" stroke-linecap="round" fill-rule="evenodd" font-size="9pt" stroke="#000" stroke-width="0.25mm" fill="none" style="stroke:#000;stroke-width:0.25mm;fill:none"><path d="M 30.751 18.8 A 12.362 12.362 0 0 0 27.066 19.326 A 10.08 10.08 0 0 0 23.201 21.55 A 8.965 8.965 0 0 0 20.508 26.328 A 13.558 13.558 0 0 0 20.201 29.3 A 16.739 16.739 0 0 0 21.299 35.41 A 15.7 15.7 0 0 0 22.751 38.25 Q 25.301 42.2 29.051 44.95 Q 32.801 47.7 37.251 50.9 Q 41.701 54.1 45.451 56.95 Q 49.201 59.8 51.751 64 Q 54.301 68.2 54.301 72.9 A 19.614 19.614 0 0 1 47.896 87.573 A 26.721 26.721 0 0 1 46.701 88.65 Q 39.101 95.1 26.751 95.1 Q 17.713 95.1 11.433 92.262 A 23.3 23.3 0 0 1 7.201 89.8 A 23.257 23.257 0 0 1 3.57 86.541 Q 0.001 82.517 0.001 77.8 A 18.014 18.014 0 0 1 0.495 73.454 A 12.188 12.188 0 0 1 4.001 67.35 A 13.688 13.688 0 0 1 11.609 63.786 A 18.842 18.842 0 0 1 14.301 63.6 A 14.46 14.46 0 0 1 16.862 63.82 A 12.772 12.772 0 0 1 17.701 64 Q 14.601 68.6 14.601 73.95 A 14.468 14.468 0 0 0 15.588 79.353 A 13.468 13.468 0 0 0 17.901 83.15 A 10.789 10.789 0 0 0 25.812 86.976 A 14.747 14.747 0 0 0 26.651 87 A 17.245 17.245 0 0 0 31.011 86.474 A 13.224 13.224 0 0 0 35.801 84.15 A 9.95 9.95 0 0 0 38.196 81.57 A 8.692 8.692 0 0 0 39.501 76.85 A 13.398 13.398 0 0 0 38.524 71.698 A 12.718 12.718 0 0 0 37.001 69 Q 34.501 65.6 30.801 63.15 Q 27.101 60.7 22.701 57.55 A 117.282 117.282 0 0 1 16.737 52.996 A 100.77 100.77 0 0 1 14.601 51.2 A 24.795 24.795 0 0 1 9.991 45.835 A 30.564 30.564 0 0 1 8.401 43.05 Q 5.901 38.1 5.901 32.2 A 21.069 21.069 0 0 1 7.084 24.993 A 18.102 18.102 0 0 1 12.801 17.05 A 23.669 23.669 0 0 1 21.783 12.56 Q 25.273 11.622 29.407 11.443 A 45.949 45.949 0 0 1 31.401 11.4 A 41.696 41.696 0 0 1 38.084 11.9 Q 44.968 13.02 49.151 16.65 Q 55.201 21.9 55.201 27.85 A 15.365 15.365 0 0 1 54.309 33.168 A 13.644 13.644 0 0 1 51.401 37.85 A 12.572 12.572 0 0 1 44.091 41.662 A 18.062 18.062 0 0 1 41.101 41.9 Q 38.901 41.9 36.801 41.5 A 20.928 20.928 0 0 0 39.69 37.691 A 14.026 14.026 0 0 0 41.701 30.55 Q 41.701 26.196 39.866 23.419 A 9.047 9.047 0 0 0 38.501 21.8 Q 35.301 18.8 30.751 18.8 Z M 259.084 50.111 A 52.359 52.359 0 0 0 254.201 61.7 Q 254.901 54.5 256.851 38.5 A 705.053 705.053 0 0 0 257.499 33.009 Q 258.452 24.644 258.707 20.214 A 48.592 48.592 0 0 0 258.801 17.5 A 33.331 33.331 0 0 0 258.615 13.882 Q 258.376 11.701 257.831 9.894 A 13.988 13.988 0 0 0 256.051 6.05 A 11.351 11.351 0 0 0 253.051 3.11 Q 250.268 1.191 245.801 0 Q 246.719 2.297 246.935 7.935 A 99.151 99.151 0 0 1 247.001 11.7 A 176.065 176.065 0 0 1 246.82 19.368 Q 246.012 37.812 241.601 68.2 Q 240.299 77.464 239.994 82.156 A 38.575 38.575 0 0 0 239.901 84.6 A 13.552 13.552 0 0 0 239.929 85.494 Q 240.014 86.768 240.346 87.81 A 6.085 6.085 0 0 0 242.401 90.85 A 6.328 6.328 0 0 0 243.184 91.369 Q 245.718 92.8 250.601 92.8 A 17.226 17.226 0 0 0 251.041 92.793 Q 251.88 92.771 253.506 92.678 A 260.148 260.148 0 0 0 254.801 92.6 A 27.771 27.771 0 0 1 254.577 90.985 Q 254.201 87.595 254.201 81.85 Q 254.201 74.6 256.001 67.3 A 69.624 69.624 0 0 1 256.844 64.181 Q 257.583 61.691 258.438 59.565 A 34.628 34.628 0 0 1 260.451 55.35 Q 261.941 52.734 263.511 50.736 A 23.88 23.88 0 0 1 266.001 48 Q 267.768 46.355 269.349 45.712 A 5.174 5.174 0 0 1 271.301 45.3 Q 275.301 45.3 275.301 51.9 A 38.072 38.072 0 0 1 275.214 54.336 Q 274.885 59.432 273.301 67.95 A 292.162 292.162 0 0 0 272.635 71.65 Q 271.658 77.308 271.396 80.444 A 24.069 24.069 0 0 0 271.301 82.4 A 20.011 20.011 0 0 0 271.432 84.755 Q 271.637 86.48 272.161 87.854 A 7.858 7.858 0 0 0 274.851 91.5 A 9.201 9.201 0 0 0 276.354 92.384 Q 279.977 94.1 286.801 94.1 A 97.542 97.542 0 0 0 287.865 94.095 Q 288.97 94.082 289.782 94.044 A 24.837 24.837 0 0 0 290.501 94 A 16.442 16.442 0 0 1 289.854 93.626 Q 287.261 92.047 286.101 89.95 A 6.868 6.868 0 0 1 285.707 89.099 Q 285.089 87.497 284.892 84.988 A 32.616 32.616 0 0 1 284.801 82.45 Q 284.801 77.3 286.751 66 A 220.13 220.13 0 0 0 287.34 62.413 Q 288.217 56.778 288.529 52.606 A 56.275 56.275 0 0 0 288.701 48.45 A 27.294 27.294 0 0 0 288.613 46.223 Q 288.228 41.524 286.151 38.55 A 7.624 7.624 0 0 0 283.866 36.398 Q 282.497 35.558 280.677 35.189 A 15.762 15.762 0 0 0 277.551 34.9 A 9.812 9.812 0 0 0 276.09 35.011 Q 270.664 35.827 264.501 42.65 A 43.832 43.832 0 0 0 259.084 50.111 Z M 78.701 73.7 A 20.676 20.676 0 0 0 78.927 76.852 Q 79.185 78.523 79.738 79.899 A 10.541 10.541 0 0 0 80.451 81.35 A 6.7 6.7 0 0 0 81.825 83.03 Q 83.298 84.298 85.392 84.3 A 7.003 7.003 0 0 0 85.401 84.3 Q 89.183 84.3 92.673 80.739 A 21.869 21.869 0 0 0 94.351 78.8 Q 98.601 73.3 101.151 64.7 A 63.523 63.523 0 0 0 103.213 55.294 A 51.005 51.005 0 0 0 103.701 48.35 Q 103.701 40.6 103.101 35.8 A 179.186 179.186 0 0 1 104.478 35.713 Q 106.196 35.612 107.099 35.601 A 17.112 17.112 0 0 1 107.301 35.6 Q 110.468 35.6 112.671 36.333 A 8.426 8.426 0 0 1 115.001 37.5 A 5.666 5.666 0 0 1 116.909 40.044 Q 117.601 41.773 117.601 44.3 Q 117.601 46.2 115.201 59.75 Q 112.801 73.3 112.801 81.45 Q 112.801 89.6 115.901 95.9 Q 108.401 94.6 104.901 90.35 A 13.857 13.857 0 0 1 102.447 85.728 Q 101.797 83.708 101.551 81.254 A 31.606 31.606 0 0 1 101.401 78.1 Q 101.401 76.951 101.67 74.052 A 193.361 193.361 0 0 1 101.801 72.7 A 32.635 32.635 0 0 1 97.592 81.983 A 28.534 28.534 0 0 1 92.201 88 Q 87.037 92.341 82.013 93.433 A 15.788 15.788 0 0 1 78.651 93.8 Q 72.001 93.8 67.951 88.85 Q 64.657 84.824 64.042 78.054 A 35.992 35.992 0 0 1 63.901 74.8 Q 63.901 65.7 67.151 57.15 Q 70.401 48.6 76.901 42.65 Q 83.401 36.7 91.401 36.7 Q 96.001 36.7 100.801 38.9 A 28.625 28.625 0 0 0 87.307 49.051 A 38.225 38.225 0 0 0 84.701 53.05 A 49.691 49.691 0 0 0 80.599 62.195 A 36.967 36.967 0 0 0 78.701 73.7 Z M 188.501 73.7 A 20.676 20.676 0 0 0 188.727 76.852 Q 188.985 78.523 189.538 79.899 A 10.541 10.541 0 0 0 190.251 81.35 A 6.7 6.7 0 0 0 191.625 83.03 Q 193.098 84.298 195.192 84.3 A 7.003 7.003 0 0 0 195.201 84.3 Q 198.983 84.3 202.473 80.739 A 21.869 21.869 0 0 0 204.151 78.8 Q 208.401 73.3 210.951 64.7 A 63.523 63.523 0 0 0 213.013 55.294 A 51.005 51.005 0 0 0 213.501 48.35 Q 213.501 40.6 212.901 35.8 A 179.186 179.186 0 0 1 214.278 35.713 Q 215.996 35.612 216.899 35.601 A 17.112 17.112 0 0 1 217.101 35.6 Q 220.268 35.6 222.471 36.333 A 8.426 8.426 0 0 1 224.801 37.5 A 5.666 5.666 0 0 1 226.709 40.044 Q 227.401 41.773 227.401 44.3 Q 227.401 46.2 225.001 59.75 Q 222.601 73.3 222.601 81.45 Q 222.601 89.6 225.701 95.9 Q 218.201 94.6 214.701 90.35 A 13.857 13.857 0 0 1 212.247 85.728 Q 211.597 83.708 211.351 81.254 A 31.606 31.606 0 0 1 211.201 78.1 Q 211.201 76.951 211.47 74.052 A 193.361 193.361 0 0 1 211.601 72.7 A 32.635 32.635 0 0 1 207.392 81.983 A 28.534 28.534 0 0 1 202.001 88 Q 196.837 92.341 191.813 93.433 A 15.788 15.788 0 0 1 188.451 93.8 Q 181.801 93.8 177.751 88.85 Q 174.457 84.824 173.842 78.054 A 35.992 35.992 0 0 1 173.701 74.8 Q 173.701 65.7 176.951 57.15 Q 180.201 48.6 186.701 42.65 Q 193.201 36.7 201.201 36.7 Q 205.801 36.7 210.601 38.9 A 28.625 28.625 0 0 0 197.107 49.051 A 38.225 38.225 0 0 0 194.501 53.05 A 49.691 49.691 0 0 0 190.399 62.195 A 36.967 36.967 0 0 0 188.501 73.7 Z M 147.566 52.985 A 91.344 91.344 0 0 0 145.301 60.1 A 58.456 58.456 0 0 0 145.524 58.711 A 64.404 64.404 0 0 0 146.201 49.25 A 20.877 20.877 0 0 0 146.137 47.604 A 16.709 16.709 0 0 0 143.301 39.35 Q 140.401 35.1 133.101 32.8 A 52.973 52.973 0 0 1 134.263 38.902 A 65.348 65.348 0 0 1 134.801 47.45 A 64.793 64.793 0 0 1 134.79 48.632 Q 134.696 53.764 133.808 60.957 A 243.539 243.539 0 0 1 132.701 68.8 A 974.707 974.707 0 0 0 132.122 72.535 Q 130.936 80.303 130.674 83.049 A 13.427 13.427 0 0 0 130.601 84.2 A 14.606 14.606 0 0 0 130.676 85.723 Q 130.811 87.01 131.187 88.046 A 6.092 6.092 0 0 0 133.101 90.8 Q 134.937 92.269 138.498 92.659 A 25.829 25.829 0 0 0 141.301 92.8 Q 142.032 92.8 144.282 92.668 A 296.593 296.593 0 0 0 145.401 92.6 Q 144.963 86.038 144.908 84.452 A 10.9 10.9 0 0 1 144.901 84.1 A 94.911 94.911 0 0 1 145.007 79.563 A 80.65 80.65 0 0 1 146.251 68.65 Q 147.601 61.4 149.601 56.75 Q 151.601 52.1 153.801 49.45 A 14.728 14.728 0 0 1 154.233 48.952 Q 155.375 47.695 156.433 47.173 A 3.304 3.304 0 0 1 157.901 46.8 A 3.655 3.655 0 0 1 158.387 46.831 Q 160.501 47.115 160.501 50 A 18.336 18.336 0 0 1 160.432 51.598 A 14.238 14.238 0 0 1 157.401 59.4 A 13.592 13.592 0 0 0 158.311 59.747 Q 158.953 59.965 159.531 60.078 A 6.102 6.102 0 0 0 160.701 60.2 A 12.647 12.647 0 0 0 161.246 60.188 Q 163.851 60.076 165.888 58.877 A 10.285 10.285 0 0 0 169.051 55.9 Q 172.101 51.6 172.101 46.45 Q 172.101 43.955 171.584 41.907 A 12.079 12.079 0 0 0 169.901 38.05 A 7.001 7.001 0 0 0 166.087 35.184 A 9.227 9.227 0 0 0 163.351 34.8 A 6.584 6.584 0 0 0 161.805 34.989 Q 158.116 35.878 153.951 40.95 Q 150.4 45.274 147.566 52.985 Z" vector-effect="non-scaling-stroke"/></g></svg>