0
SECTION
2
HEADER
0
ENDSEC
0
SECTION
2
TABLES
0
TABLE
2
LTYPE
0
LTYPE
72
65
70
64
2
CONTINUOUS
3
______
73
0
40
0
0
ENDTAB
0
TABLE
2
LAYER
0
ENDTAB
0
ENDSEC
0
SECTION
2
ENTITIES
0
POLYLINE
8
0
66
1
70
1
0
VERTEX
8
0
10
6.1865171
20
7.0099024
0
VERTEX
8
0
10
6.1197561
20
7.9445561
0
VERTEX
8
0
10
6.2977854
20
7.9445561
42
0.0902791
0
VERTEX
8
0
10
8.2210541
20
8.2711202
42
0.1380435
0
VERTEX
8
0
10
10.303444
20
9.8138634
42
0.0677617
0
VERTEX
8
0
10
11.0165722
20
11.0404191
42
0.0971983
0
VERTEX
8
0
10
11.3271122
20
12.6178244
42
0.0679233
0
VERTEX
8
0
10
11.1918847
20
13.7022006
42
0.2455631
0
VERTEX
8
0
10
9.6085508
20
15.4505262
42
0.003022
0
VERTEX
8
0
10
9.5690732
20
15.4662926
42
0.0902295
0
VERTEX
8
0
10
8.2647614
20
15.6981016
42
0.0597728
0
VERTEX
8
0
10
7.182585
20
15.5622195
42
0.0401748
0
VERTEX
8
0
10
6.2310244
20
15.2437561
0
VERTEX
8
0
10
6.2310243
20
15.1992488
42
-0.0176549
0
VERTEX
8
0
10
6.2087272
20
14.7471779
42
-0.0068518
0
VERTEX
8
0
10
6.1404369
20
14.0117718
42
-0.0030692
0
VERTEX
8
0
10
6.0505443
20
13.2046617
42
-0.0022226
0
VERTEX
8
0
10
5.9127447
20
12.0747099
42
-0.0013026
0
VERTEX
8
0
10
5.7682517
20
10.9535626
42
-0.0009911
0
VERTEX
8
0
10
5.5967951
20
9.6692147
42
0.0090911
0
VERTEX
8
0
10
5.2228538
20
6.5020534
42
0.0120431
0
VERTEX
8
0
10
5.0123866
20
3.7274112
42
0.0123962
0
VERTEX
8
0
10
4.9625658
20
1.8470537
42
0.006678
0
VERTEX
8
0
10
4.9709109
20
1.1850074
42
0.0097993
0
VERTEX
8
0
10
5.0002493
20
0.5333055
42
0.0141935
0
VERTEX
8
0
10
5.0532722
20
-0.0407273
42
0.011601
0
VERTEX
8
0
10
5.0960878
20
-0.3338049
42
-0.0012469
0
VERTEX
8
0
10
4.8079638
20
-0.3511471
42
-0.0015554
0
VERTEX
8
0
10
4.5903033
20
-0.3630318
42
-0.0026245
0
VERTEX
8
0
10
4.3900827
20
-0.3723433
42
-0.003568
0
VERTEX
8
0
10
4.259344
20
-0.37682
42
-0.0063873
0
VERTEX
8
0
10
4.1614341
20
-0.3783121
42
-0.0271785
0
VERTEX
8
0
10
3.5378101
20
-0.3469093
42
-0.0410619
0
VERTEX
8
0
10
2.9771827
20
-0.2424557
42
-0.0669942
0
VERTEX
8
0
10
2.4879596
20
-0.0382242
42
-0.0331897
0
VERTEX
8
0
10
2.3366341
20
0.0667609
42
-0.1377554
0
VERTEX
8
0
10
1.919378
20
0.6620463
42
-0.0608027
0
VERTEX
8
0
10
1.800675
20
1.179377
42
-0.0284399
0
VERTEX
8
0
10
1.7802927
20
1.5577561
42
-0.0178456
0
VERTEX
8
0
10
1.8065016
20
2.0990155
42
-0.0075226
0
VERTEX
8
0
10
1.8903796
20
2.9876211
42
-0.003298
0
VERTEX
8
0
10
1.9962394
20
3.9115985
42
-0.0024404
0
VERTEX
8
0
10
2.1575603
20
5.1912097
42
-0.0014506
0
VERTEX
8
0
10
2.32615
20
6.4517804
42
-0.0011141
0
VERTEX
8
0
10
2.5257903
20
7.888922
42
0.0043016
0
VERTEX
8
0
10
2.8519454
20
10.3423878
42
0.0056022
0
VERTEX
8
0
10
3.073083
20
12.2989277
42
0.0091067
0
VERTEX
8
0
10
3.2209593
20
14.0548287
42
0.0153008
0
VERTEX
8
0
10
3.2712755
20
15.4145223
42
0.0003362
0
VERTEX
8
0
10
3.2712878
20
15.4329122
42
0.008847
0
VERTEX
8
0
10
3.2563796
20
16.3460403
42
0.0127076
0
VERTEX
8
0
10
3.2113885
20
17.1120908
42
0.0204812
0
VERTEX
8
0
10
3.1328502
20
17.74712
42
0.0360164
0
VERTEX
8
0
10
3.0212749
20
18.2207389
42
0.0269031
0
VERTEX
8
0
10
2.9597366
20
18.3815219
42
-0.0550079
0
VERTEX
8
0
10
4.084603
20
18.177675
42
-0.1055594
0
VERTEX
8
0
10
5.2439837
20
17.5557195
42
-0.1107955
0
VERTEX
8
0
10
5.9417268
20
16.6012293
42
-0.1255418
0
VERTEX
8
0
10
9.6494792
20
17.5356548
42
-0.0017799
0
VERTEX
8
0
10
9.713722
20
17.5358829
42
-0.0661046
0
VERTEX
8
0
10
11.1083909
20
17.3633607
42
-0.1431146
0
VERTEX
8
0
10
12.9627561
20
16.2562976
42
-0.1863788
0
VERTEX
8
0
10
14.1497662
20
13.3100966
42
-0.0088576
0
VERTEX
8
0
10
14.1533269
20
13.1074049
42
-0.1727722
0
VERTEX
8
0
10
12.8117833
20
9.3379524
42
-0.0174271
0
VERTEX
8
0
10
12.4620488
20
8.9237171
42
-0.0716393
0
VERTEX
8
0
10
11.2107288
20
7.9202107
42
-0.0338922
0
VERTEX
8
0
10
10.3368243
20
7.4772293
42
-0.0785772
0
VERTEX
8
0
10
8.2275949
20
6.9556592
42
-0.0229647
0
VERTEX
8
0
10
7.4549756
20
6.9208878
42
-0.0263211
0
VERTEX
8
0
10
6.5104285
20
6.968894
42
-0.0104487
0
SEQEND
0
POLYLINE
8
0
66
1
70
1
0
VERTEX
8
0
10
52.6666868
20
8.8157928
42
0.020445
0
VERTEX
8
0
10
52.1625758
20
7.232439
42
0.0060175
0
VERTEX
8
0
10
52.2122432
20
7.5415841
42
0.0368686
0
VERTEX
8
0
10
52.3628583
20
9.646961
42
0.0197394
0
VERTEX
8
0
10
52.3486389
20
10.0133667
42
0.1328785
0
VERTEX
8
0
10
51.7175023
20
11.8500731
42
0.0730352
0
VERTEX
8
0
10
51.1576388
20
12.4494092
42
0.0563011
0
VERTEX
8
0
10
50.3660434
20
12.946046
42
0.0376549
0
VERTEX
8
0
10
49.4476293
20
13.3076878
42
-0.0293395
0
VERTEX
8
0
10
49.7062412
20
11.9498234
42
-0.0328025
0
VERTEX
8
0
10
49.8259414
20
10.0475269
42
-0.0045595
0
VERTEX
8
0
10
49.8234843
20
9.7845866
42
-0.0154818
0
VERTEX
8
0
10
49.7560519
20
8.4978081
42
-0.0105135
0
VERTEX
8
0
10
49.6050565
20
7.0416747
42
-0.0081312
0
VERTEX
8
0
10
49.3586146
20
5.2963708
42
0.0009694
0
VERTEX
8
0
10
49.2299067
20
4.4652411
42
0.0012982
0
VERTEX
8
0
10
49.121886
20
3.7464129
42
0.00228
0
VERTEX
8
0
10
49.0195682
20
3.0320572
42
0.0032918
0
VERTEX
8
0
10
48.9536275
20
2.5328343
42
0.0070157
0
VERTEX
8
0
10
48.9077172
20
2.1253983
42
0.0214808
0
VERTEX
8
0
10
48.8912878
20
1.8693073
42
0.0261133
0
VERTEX
8
0
10
48.9081455
20
1.5304549
42
0.0608085
0
VERTEX
8
0
10
49.0218163
20
1.0133782
42
0.1403123
0
VERTEX
8
0
10
49.4476292
20
0.4005658
42
0.0331897
0
VERTEX
8
0
10
49.5989547
20
0.2955806
42
0.0669942
0
VERTEX
8
0
10
50.0881779
20
0.0913493
42
0.0410619
0
VERTEX
8
0
10
50.6488053
20
-0.0131043
42
0.0271785
0
VERTEX
8
0
10
51.2724292
20
-0.0445073
42
0.0015711
0
VERTEX
8
0
10
51.2850578
20
-0.0444664
42
0.0065486
0
VERTEX
8
0
10
51.3998589
20
-0.0418835
42
0.003328
0
VERTEX
8
0
10
51.5624111
20
-0.0352107
42
0.0015158
0
VERTEX
8
0
10
51.7065875
20
-0.0279801
42
0.0014208
0
VERTEX
8
0
10
51.9357795
20
-0.0151256
42
0.0009453
0
VERTEX
8
0
10
52.1848293
20
0
42
-0.0001311
0
VERTEX
8
0
10
52.1726665
20
0.1831449
42
-0.0004852
0
VERTEX
8
0
10
52.140401
20
0.6776849
42
-0.0007298
0
VERTEX
8
0
10
52.1136304
20
1.1035685
42
-0.000834
0
VERTEX
8
0
10
52.0978062
20
1.3686135
42
-0.0018676
0
VERTEX
8
0
10
52.0828581
20
1.6420426
42
-0.0037683
0
VERTEX
8
0
10
52.0752996
20
1.8133254
42
-0.0080674
0
VERTEX
8
0
10
52.073561
20
1.891561
42
-0.0119566
0
VERTEX
8
0
10
52.0973249
20
2.9012881
42
-0.0340857
0
VERTEX
8
0
10
52.3739853
20
5.3297512
42
-0.0104567
0
VERTEX
8
0
10
52.5358699
20
6.1117499
42
-0.0191048
0
VERTEX
8
0
10
52.8060192
20
7.1204753
42
-0.0258002
0
VERTEX
8
0
10
53.119483
20
7.9779366
42
-0.0144947
0
VERTEX
8
0
10
53.36621
20
8.5105629
42
-0.0235226
0
VERTEX
8
0
10
53.6932099
20
9.0975739
42
-0.0334749
0
VERTEX
8
0
10
54.0541366
20
9.6024537
42
-0.0111962
0
VERTEX
8
0
10
54.1503004
20
9.7133079
42
-0.0363676
0
VERTEX
8
0
10
54.3901214
20
9.9442145
42
-0.0569645
0
VERTEX
8
0
10
54.6400337
20
10.109246
42
-0.1160897
0
VERTEX
8
0
10
54.9665366
20
10.1921756
42
-0.0333914
0
VERTEX
8
0
10
55.0748458
20
10.1852746
42
-0.2246165
0
VERTEX
8
0
10
55.4268447
20
9.9784399
42
-0.0970122
0
VERTEX
8
0
10
55.5212589
20
9.7399743
42
-0.0508243
0
VERTEX
8
0
10
55.5451317
20
9.4800585
42
-0.0218121
0
VERTEX
8
0
10
55.5299315
20
9.1245433
42
-0.1502986
0
VERTEX
8
0
10
54.8552683
20
7.3882147
42
0.0179207
0
VERTEX
8
0
10
55.0577944
20
7.3109799
42
0.0332493
0
VERTEX
8
0
10
55.3292614
20
7.2373504
42
0.0483067
0
VERTEX
8
0
10
55.5896391
20
7.2101852
42
0.0107795
0
VERTEX
8
0
10
55.7109518
20
7.2127732
42
0.1244858
0
VERTEX
8
0
10
56.7440279
20
7.5046049
42
0.1067776
0
VERTEX
8
0
10
57.4478195
20
8.1670926
42
0.1593036
0
VERTEX
8
0
10
58.1265563
20
10.2700634
42
0.0117662
0
VERTEX
8
0
10
58.1210596
20
10.5081835
42
0.0499468
0
VERTEX
8
0
10
58.011691
20
11.2811107
42
0.0877694
0
VERTEX
8
0
10
57.6369757
20
12.1393708
42
0.1756029
0
VERTEX
8
0
10
56.7883485
20
12.7771532
42
0.075296
0
VERTEX
8
0
10
56.179361
20
12.8626145
42
0.0593508
0
VERTEX
8
0
10
55.8353219
20
12.8205914
42
0.0832687
0
VERTEX
8
0
10
55.1983091
20
12.5372321
42
0.0473632
0
VERTEX
8
0
10
54.6354476
20
12.0887624
42
0.0309741
0
VERTEX
8
0
10
54.087517
20
11.4940147
42
0.0122287
0
VERTEX
8
0
10
53.9226133
20
11.282647
42
0.0425203
0
VERTEX
8
0
10
53.2490415
20
10.172978
42
0.0288053
0
SEQEND
0
POLYLINE
8
0
66
1
70
1
0
VERTEX
8
0
10
18.2034926
20
5.7191901
42
0.0589491
0
VERTEX
8
0
10
20.2953366
20
5.4744
42
0.0441012
0
VERTEX
8
0
10
21.6194465
20
5.5859303
42
0.110634
0
VERTEX
8
0
10
23.8670488
20
6.4980682
42
0.1798161
0
VERTEX
8
0
10
25.167728
20
8.3558141
42
0.0671405
0
VERTEX
8
0
10
25.3246635
20
9.6135805
42
0.0317101
0
VERTEX
8
0
10
25.2925868
20
10.1364546
42
0.1742048
0
VERTEX
8
0
10
24.4122632
20
11.9502145
42
0.0961139
0
VERTEX
8
0
10
23.5463719
20
12.5078265
42
0.0593681
0
VERTEX
8
0
10
22.5919259
20
12.7659828
42
0.038622
0
VERTEX
8
0
10
21.5526683
20
12.8403609
42
0.1654082
0
VERTEX
8
0
10
18.0032098
20
11.6497902
42
0.0074947
0
VERTEX
8
0
10
17.8063169
20
11.4988827
42
0.1273985
0
VERTEX
8
0
10
15.6665755
20
8.734561
42
0.1020113
0
VERTEX
8
0
10
14.9322049
20
5.0960878
42
0.0068324
0
VERTEX
8
0
10
14.9355473
20
4.8488482
42
0.0564084
0
VERTEX
8
0
10
15.14613
20
3.2682154
42
0.1330393
0
VERTEX
8
0
10
16.3341853
20
1.1015561
42
0.0106403
0
VERTEX
8
0
10
16.5112585
20
0.9277429
42
0.1980419
0
VERTEX
8
0
10
19.6054732
20
-0.3338048
42
0.1874995
0
VERTEX
8
0
10
23.2679023
20
1.0381741
42
0.0690397
0
VERTEX
8
0
10
24.6570536
20
2.670439
42
0.0051664
0
VERTEX
8
0
10
24.6568368
20
2.6915441
42
0.1820492
0
VERTEX
8
0
10
24.4816643
20
3.1720483
42
0.104032
0
VERTEX
8
0
10
24.1862462
20
3.3852633
42
0.0544979
0
VERTEX
8
0
10
23.8559221
20
3.4938244
42
-0.0324478
0
VERTEX
8
0
10
23.3859437
20
2.8426442
42
-0.073068
0
VERTEX
8
0
10
22.3426731
20
1.8915611
42
-0.0166299
0
VERTEX
8
0
10
22.1208751
20
1.7539773
42
-0.1333231
0
VERTEX
8
0
10
20.5178732
20
1.3129659
42
-0.1785885
0
VERTEX
8
0
10
19.340445
20
1.7447526
42
-0.0622073
0
VERTEX
8
0
10
18.8711024
20
2.2476195
42
-0.0795179
0
VERTEX
8
0
10
18.4425689
20
3.1013129
42
-0.0473635
0
VERTEX
8
0
10
18.24204
20
4.0130529
42
-0.0322112
0
VERTEX
8
0
10
18.1812391
20
5.0293268
42
-0.0002145
0
VERTEX
8
0
10
18.1812464
20
5.0461892
42
-0.0038356
0
VERTEX
8
0
10
18.183111
20
5.2798205
42
-0.0053841
0
VERTEX
8
0
10
18.1882804
20
5.4776164
42
-0.0051786
0
VERTEX
8
0
10
18.1937567
20
5.5926225
42
-0.0101214
0
SEQEND
0
POLYLINE
8
0
66
1
70
1
0
VERTEX
8
0
10
39.2554536
20
5.7191901
42
0.0589491
0
VERTEX
8
0
10
41.3472976
20
5.4744
42
0.0441012
0
VERTEX
8
0
10
42.6714075
20
5.5859303
42
0.110634
0
VERTEX
8
0
10
44.9190098
20
6.4980682
42
0.1798161
0
VERTEX
8
0
10
46.219689
20
8.3558141
42
0.0671405
0
VERTEX
8
0
10
46.3766244
20
9.6135805
42
0.0317101
0
VERTEX
8
0
10
46.3445478
20
10.1364546
42
0.1742048
0
VERTEX
8
0
10
45.4642242
20
11.9502145
42
0.0961139
0
VERTEX
8
0
10
44.5983328
20
12.5078265
42
0.0593681
0
VERTEX
8
0
10
43.6438869
20
12.7659828
42
0.038622
0
VERTEX
8
0
10
42.6046292
20
12.8403609
42
0.1654082
0
VERTEX
8
0
10
39.0551708
20
11.6497902
42
0.0074947
0
VERTEX
8
0
10
38.8582779
20
11.4988827
42
0.1273985
0
VERTEX
8
0
10
36.7185365
20
8.734561
42
0.1020113
0
VERTEX
8
0
10
35.9841658
20
5.0960878
42
0.0068324
0
VERTEX
8
0
10
35.9875083
20
4.8488482
42
0.0564084
0
VERTEX
8
0
10
36.198091
20
3.2682154
42
0.1330393
0
VERTEX
8
0
10
37.3861463
20
1.1015561
42
0.0106403
0
VERTEX
8
0
10
37.5632195
20
0.9277429
42
0.1980419
0
VERTEX
8
0
10
40.6574342
20
-0.3338048
42
0.1874995
0
VERTEX
8
0
10
44.3198633
20
1.0381741
42
0.0690397
0
VERTEX
8
0
10
45.7090146
20
2.670439
42
0.0051664
0
VERTEX
8
0
10
45.7087978
20
2.6915441
42
0.1820492
0
VERTEX
8
0
10
45.5336253
20
3.1720483
42
0.104032
0
VERTEX
8
0
10
45.2382071
20
3.3852633
42
0.0544979
0
VERTEX
8
0
10
44.907883
20
3.4938244
42
-0.0324478
0
VERTEX
8
0
10
44.4379047
20
2.8426442
42
-0.073068
0
VERTEX
8
0
10
43.394634
20
1.8915611
42
-0.0166299
0
VERTEX
8
0
10
43.1728361
20
1.7539773
42
-0.1333231
0
VERTEX
8
0
10
41.5698341
20
1.3129659
42
-0.1785885
0
VERTEX
8
0
10
40.392406
20
1.7447526
42
-0.0622073
0
VERTEX
8
0
10
39.9230634
20
2.2476195
42
-0.0795179
0
VERTEX
8
0
10
39.4945299
20
3.1013129
42
-0.0473635
0
VERTEX
8
0
10
39.294001
20
4.0130529
42
-0.0322112
0
VERTEX
8
0
10
39.2332001
20
5.0293268
42
-0.0002145
0
VERTEX
8
0
10
39.2332074
20
5.0461892
42
-0.0038356
0
VERTEX
8
0
10
39.235072
20
5.2798205
42
-0.0053841
0
VERTEX
8
0
10
39.2402413
20
5.4776164
42
-0.0051786
0
VERTEX
8
0
10
39.2457177
20
5.5926225
42
-0.0101214
0
SEQEND
0
POLYLINE
8
0
66
1
70
1
0
VERTEX
8
0
10
32.3526469
20
9.9849384
42
0.0044348
0
VERTEX
8
0
10
32.4235804
20
10.4592193
42
0.0043481
0
VERTEX
8
0
10
32.6658661
20
10.4500105
42
0.0030623
0
VERTEX
8
0
10
32.9546041
20
10.4432465
42
0.0026542
0
VERTEX
8
0
10
33.3624068
20
10.4383569
42
0.0017677
0
VERTEX
8
0
10
33.7810537
20
10.4369659
42
0.0370977
0
VERTEX
8
0
10
34.2293088
20
10.4677063
42
0.0579769
0
VERTEX
8
0
10
34.6392158
20
10.5745652
42
0.1131567
0
VERTEX
8
0
10
35.0495123
20
10.8486585
42
0.0588026
0
VERTEX
8
0
10
35.1856751
20
11.0395419
42
0.0630614
0
VERTEX
8
0
10
35.3302677
20
11.4129505
42
0.0377139
0
VERTEX
8
0
10
35.4041798
20
11.8354692
42
0.0259553
0
VERTEX
8
0
10
35.4278243
20
12.3285268
42
0.0094109
0
VERTEX
8
0
10
35.4253795
20
12.4450651
42
0.0064113
0
VERTEX
8
0
10
35.418045
20
12.5860521
42
0.0054094
0
VERTEX
8
0
10
35.4027891
20
12.7875086
42
0.0035285
0
VERTEX
8
0
10
35.3833171
20
12.9961365
42
-0.0161393
0
VERTEX
8
0
10
35.2663979
20
12.9092766
42
-0.0725275
0
VERTEX
8
0
10
34.4891436
20
12.5342515
42
-0.0438512
0
VERTEX
8
0
10
33.618389
20
12.3378498
42
-0.0293042
0
VERTEX
8
0
10
32.6461169
20
12.2617659
42
0.0030512
0
VERTEX
8
0
10
32.6817967
20
12.5851138
42
0.006418
0
VERTEX
8
0
10
32.7259825
20
13.0659618
42
0.0085283
0
VERTEX
8
0
10
32.750431
20
13.4592909
42
0.0107977
0
VERTEX
8
0
10
32.7573853
20
13.7527609
42
0.0166231
0
VERTEX
8
0
10
32.7468622
20
14.0783865
42
0.0566445
0
VERTEX
8
0
10
32.6082387
20
14.8782429
42
0.1148305
0
VERTEX
8
0
10
32.0897757
20
15.8112245
42
0.0832658
0
VERTEX
8
0
10
31.4990752
20
16.2617684
42
0.0592906
0
VERTEX
8
0
10
30.7548821
20
16.5477383
42
0.0378904
0
VERTEX
8
0
10
29.9534244
20
16.6902439
42
0.0021397
0
VERTEX
8
0
10
29.9540356
20
16.5620518
42
0.0014605
0
VERTEX
8
0
10
29.9558692
20
16.4069661
42
0.0012356
0
VERTEX
8
0
10
29.9596832
20
16.185364
42
0.0008081
0
VERTEX
8
0
10
29.9645512
20
15.9558731
42
-0.0002098
0
VERTEX
8
0
10
29.9650826
20
15.932064
42
-0.0025445
0
VERTEX
8
0
10
29.9714932
20
15.5406045
42
-0.0018796
0
VERTEX
8
0
10
29.9749826
20
15.083808
42
-0.0010318
0
VERTEX
8
0
10
29.975678
20
14.7319219
42
-0.0038047
0
VERTEX
8
0
10
29.9747033
20
14.6098941
42
-0.0080525
0
VERTEX
8
0
10
29.9600829
20
14.1736321
42
-0.0053622
0
VERTEX
8
0
10
29.9263897
20
13.6100246
42
-0.0029384
0
VERTEX
8
0
10
29.8880544
20
13.1046232
42
-0.0029491
0
VERTEX
8
0
10
29.8199024
20
12.3285267
42
0.000777
0
VERTEX
8
0
10
29.7937211
20
12.3280496
42
0.0280681
0
VERTEX
8
0
10
29.0417873
20
12.273823
42
0.0392251
0
VERTEX
8
0
10
28.386898
20
12.137702
42
0.0644243
0
VERTEX
8
0
10
27.7725658
20
11.8723269
42
0.1304532
0
VERTEX
8
0
10
27.3057504
20
11.3866009
42
0.0809672
0
VERTEX
8
0
10
27.1106934
20
10.8329164
42
0.0474984
0
VERTEX
8
0
10
27.0604488
20
10.2589365
42
0.008556
0
VERTEX
8
0
10
27.0628937
20
10.1307444
42
0.0058312
0
VERTEX
8
0
10
27.0702281
20
9.9756588
42
0.0049225
0
VERTEX
8
0
10
27.0854841
20
9.7540567
42
0.0032126
0
VERTEX
8
0
10
27.1049562
20
9.5245658
42
-0.0255026
0
VERTEX
8
0
10
28.3016336
20
9.9838735
42
-0.0353861
0
VERTEX
8
0
10
29.5751122
20
10.3034439
42
-0.0031265
0
VERTEX
8
0
10
29.5164443
20
9.9218949
42
-0.0018879
0
VERTEX
8
0
10
29.4362796
20
9.4321445
42
-0.0014626
0
VERTEX
8
0
10
29.311706
20
8.701618
42
-0.0008983
0
VERTEX
8
0
10
29.1749865
20
7.9214576
42
-0.000795
0
VERTEX
8
0
10
28.9742635
20
6.7984926
42
0.0025343
0
VERTEX
8
0
10
28.8882695
20
6.3074948
42
0.0091359
0
VERTEX
8
0
10
28.6827046
20
4.9580556
42
0.0129595
0
VERTEX
8
0
10
28.552574
20
3.7543922
42
0.0196974
0
VERTEX
8
0
10
28.5069366
20
2.7149463
42
0.0275189
0
VERTEX
8
0
10
28.5493456
20
1.8982881
42
0.0462991
0
VERTEX
8
0
10
28.7285019
20
0.9965664
42
0.0789124
0
VERTEX
8
0
10
29.1522926
20
0.1001414
42
0.0919706
0
VERTEX
8
0
10
29.8487232
20
-0.5684104
42
0.0515293
0
VERTEX
8
0
10
30.6318133
20
-0.9802585
42
0.0336962
0
VERTEX
8
0
10
31.5111806
20
-1.2684585
42
-0.0141992
0
VERTEX
8
0
10
31.4773633
20
-1.1872654
42
-0.0415764
0
VERTEX
8
0
10
31.3532663
20
-0.7392409
42
-0.0232576
0
VERTEX
8
0
10
31.2686391
20
-0.1639342
42
-0.015385
0
VERTEX
8
0
10
31.2167435
20
0.570576
42
-0.0106017
0
VERTEX
8
0
10
31.1996294
20
1.4464878
42
-0.015867
0
VERTEX
8
0
10
31.2330615
20
2.394217
42
-0.0133346
0
VERTEX
8
0
10
31.3742961
20
3.8959176
42
-0.0089553
0
VERTEX
8
0
10
31.6252304
20
5.7108451
42
-0.006027
0
VERTEX
8
0
10
31.9562538
20
7.6775121
42
0.0003324
0
VERTEX
8
0
10
32.0110515
20
7.9834656
42
0.0012248
0
VERTEX
8
0
10
32.1570654
20
8.8127676
42
0.0018189
0
VERTEX
8
0
10
32.2793663
20
9.5324763
42
0.0020399
0
SEQEND
0
POLYLINE
8
0
66
1
70
1
0
VERTEX
8
0
10
18.2925073
20
6.6538439
0
VERTEX
8
0
10
18.6263122
20
6.6538439
42
0.0448784
0
VERTEX
8
0
10
19.6866127
20
6.7421033
42
0.0739768
0
VERTEX
8
0
10
20.7254327
20
7.0820742
42
0.0886248
0
VERTEX
8
0
10
21.4859073
20
7.6552586
42
0.1953253
0
VERTEX
8
0
10
22.4094341
20
10.0586537
42
0.06887
0
VERTEX
8
0
10
22.3434229
20
10.5644136
42
0.0899592
0
VERTEX
8
0
10
22.1090098
20
11.0489415
42
0.216925
0
VERTEX
8
0
10
21.4060992
20
11.4503302
42
0.0303172
0
VERTEX
8
0
10
21.2299903
20
11.4606342
42
0.1894723
0
VERTEX
8
0
10
20.0222295
20
10.9793024
42
0.0621194
0
VERTEX
8
0
10
19.5290431
20
10.4058797
42
0.0223897
0
VERTEX
8
0
10
19.3161756
20
10.0586537
42
0.0553659
0
VERTEX
8
0
10
18.6549551
20
8.4531141
42
0.0376611
0
VERTEX
8
0
10
18.3158406
20
6.8345025
42
0.0034344
0
SEQEND
0
POLYLINE
8
0
66
1
70
1
0
VERTEX
8
0
10
39.3444683
20
6.6538439
0
VERTEX
8
0
10
39.6782731
20
6.6538439
42
0.0448784
0
VERTEX
8
0
10
40.7385736
20
6.7421033
42
0.0739768
0
VERTEX
8
0
10
41.7773937
20
7.0820742
42
0.0886248
0
VERTEX
8
0
10
42.5378682
20
7.6552586
42
0.1953253
0
VERTEX
8
0
10
43.4613951
20
10.0586537
42
0.06887
0
VERTEX
8
0
10
43.3953839
20
10.5644136
42
0.0899592
0
VERTEX
8
0
10
43.1609707
20
11.0489415
42
0.216925
0
VERTEX
8
0
10
42.4580602
20
11.4503302
42
0.0303172
0
VERTEX
8
0
10
42.2819512
20
11.4606342
42
0.1894723
0
VERTEX
8
0
10
41.0741904
20
10.9793024
42
0.0621194
0
VERTEX
8
0
10
40.5810041
20
10.4058797
42
0.0223897
0
VERTEX
8
0
10
40.3681366
20
10.0586537
42
0.0553659
0
VERTEX
8
0
10
39.706916
20
8.4531141
42
0.0376611
0
VERTEX
8
0
10
39.3678016
20
6.8345025
42
0.0034344
0
SEQEND
0
ENDSEC
0
EOF