0
SECTION
2
HEADER
0
ENDSEC
0
SECTION
2
TABLES
0
TABLE
2
LTYPE
0
LTYPE
72
65
70
64
2
CONTINUOUS
3
______
73
0
40
0
0
ENDTAB
0
TABLE
2
LAYER
0
ENDTAB
0
ENDSEC
0
SECTION
2
ENTITIES
0
POLYLINE
8
0
66
1
70
1
0
VERTEX
8
0
10
8.1371025
20
17.8992
42
0.0757016
0
VERTEX
8
0
10
7.2434593
20
17.7715367
42
0.1119857
0
VERTEX
8
0
10
6.3059512
20
17.2322244
42
0.1566744
0
VERTEX
8
0
10
5.6529943
20
16.0734512
42
0.0552685
0
VERTEX
8
0
10
5.5783414
20
15.3525659
42
0.0935323
0
VERTEX
8
0
10
5.8446935
20
13.8705939
42
0.050916
0
VERTEX
8
0
10
6.1968098
20
13.1818634
42
0.0922211
0
VERTEX
8
0
10
7.7247903
20
11.5568683
42
0.0012586
0
VERTEX
8
0
10
8.6767463
20
10.8626073
42
0.0010681
0
VERTEX
8
0
10
9.7135903
20
10.1137756
42
-0.0030519
0
VERTEX
8
0
10
10.7504342
20
9.3588805
42
-0.0035511
0
VERTEX
8
0
10
11.7023903
20
8.6464292
42
-0.0949018
0
VERTEX
8
0
10
13.2303707
20
6.9365463
42
-0.1398476
0
VERTEX
8
0
10
13.8488391
20
4.7779707
42
-0.2133456
0
VERTEX
8
0
10
12.2955701
20
1.2193238
42
-0.0150615
0
VERTEX
8
0
10
12.0055609
20
0.9580195
42
-0.1218574
0
VERTEX
8
0
10
9.2514444
20
-0.3863532
42
-0.0563035
0
VERTEX
8
0
10
7.1669561
20
-0.6063415
42
-0.0420266
0
VERTEX
8
0
10
5.2753289
20
-0.4578807
42
-0.0641858
0
VERTEX
8
0
10
3.4518603
20
0.0820756
42
-0.0526784
0
VERTEX
8
0
10
2.4253658
20
0.6791024
42
-0.0525892
0
VERTEX
8
0
10
1.5448283
20
1.4695538
42
-0.0941722
0
VERTEX
8
0
10
0.8568552
20
2.5872081
42
-0.0889304
0
VERTEX
8
0
10
0.6791024
20
3.5895415
42
-0.060932
0
VERTEX
8
0
10
0.7990088
20
4.6436852
42
-0.1475259
0
VERTEX
8
0
10
1.6492488
20
6.1240488
42
-0.1572473
0
VERTEX
8
0
10
3.4946019
20
6.9884712
42
-0.035842
0
VERTEX
8
0
10
4.1473756
20
7.0335609
42
-0.0445397
0
VERTEX
8
0
10
4.7686832
20
6.9801212
42
-0.0167865
0
VERTEX
8
0
10
4.972
20
6.9365463
42
0.1527134
0
VERTEX
8
0
10
4.2201365
20
4.5233074
42
0.0957775
0
VERTEX
8
0
10
4.4595052
20
3.2128933
42
0.0831011
0
VERTEX
8
0
10
5.0205073
20
2.2919707
42
0.2128618
0
VERTEX
8
0
10
6.9391937
20
1.3639131
42
0.0142342
0
VERTEX
8
0
10
7.1427024
20
1.3582049
42
0.0639328
0
VERTEX
8
0
10
8.2002805
20
1.4858274
42
0.1016793
0
VERTEX
8
0
10
9.3619122
20
2.0494341
42
0.08916
0
VERTEX
8
0
10
9.9429341
20
2.6751027
42
0.1437619
0
VERTEX
8
0
10
10.2592975
20
3.8199512
42
0.0988084
0
VERTEX
8
0
10
10.0224454
20
5.0695831
42
0.061126
0
VERTEX
8
0
10
9.6529561
20
5.7238634
42
0.0888502
0
VERTEX
8
0
10
8.1492292
20
7.1427024
42
-0.0049962
0
VERTEX
8
0
10
7.2094
20
7.779361
42
-0.0040985
0
VERTEX
8
0
10
6.1846829
20
8.5009073
42
-0.0159984
0
VERTEX
8
0
10
4.7383454
20
9.605408
42
-0.0069253
0
VERTEX
8
0
10
4.2201366
20
10.0410146
42
-0.0716872
0
VERTEX
8
0
10
3.1020761
20
11.3422655
42
-0.0262488
0
VERTEX
8
0
10
2.7164098
20
12.0176878
42
-0.1119955
0
VERTEX
8
0
10
2.1124368
20
14.4712391
42
-0.0066864
0
VERTEX
8
0
10
2.1100683
20
14.6492097
42
-0.0873229
0
VERTEX
8
0
10
2.3969865
20
16.3971985
42
-0.1377172
0
VERTEX
8
0
10
3.7835707
20
18.3236391
42
-0.1072874
0
VERTEX
8
0
10
5.9621367
20
19.4126111
42
-0.0548237
0
VERTEX
8
0
10
7.8112794
20
19.6836628
42
-0.0108494
0
VERTEX
8
0
10
8.2947512
20
19.6939707
42
-0.0402472
0
VERTEX
8
0
10
9.9156338
20
19.5727126
42
-0.0630154
0
VERTEX
8
0
10
11.4580487
20
19.1329935
42
-0.0758856
0
VERTEX
8
0
10
12.5997757
20
18.4206536
42
-0.0506717
0
VERTEX
8
0
10
13.3656679
20
17.6186105
42
-0.0880583
0
VERTEX
8
0
10
13.9376115
20
16.546712
42
-0.0764253
0
VERTEX
8
0
10
14.0671219
20
15.7042439
42
-0.0884264
0
VERTEX
8
0
10
13.8508877
20
14.414365
42
-0.1020442
0
VERTEX
8
0
10
13.1454829
20
13.278878
42
-0.1686074
0
VERTEX
8
0
10
11.3725574
20
12.3542199
42
-0.0415872
0
VERTEX
8
0
10
10.6473561
20
12.2966048
42
-0.0471875
0
VERTEX
8
0
10
9.6044488
20
12.3936195
42
0.0572923
0
VERTEX
8
0
10
10.3051462
20
13.317328
42
0.1346386
0
VERTEX
8
0
10
10.792878
20
15.0493951
42
0.0525789
0
VERTEX
8
0
10
10.7112943
20
15.8835856
42
0.0941723
0
VERTEX
8
0
10
10.3479591
20
16.7788388
42
0.0587379
0
VERTEX
8
0
10
10.016761
20
17.1715902
42
0.1976684
0
SEQEND
0
POLYLINE
8
0
66
1
70
1
0
VERTEX
8
0
10
63.5162579
20
10.3051995
42
0.0602653
0
VERTEX
8
0
10
62.3319025
20
7.4943805
42
-0.0004851
0
VERTEX
8
0
10
62.3450089
20
7.6278166
42
-0.0024484
0
VERTEX
8
0
10
62.4604425
20
8.7286369
42
-0.0015349
0
VERTEX
8
0
10
62.618825
20
10.1342396
42
-0.0007809
0
VERTEX
8
0
10
62.7570994
20
11.3143317
42
-0.0007892
0
VERTEX
8
0
10
62.9746245
20
13.1212292
42
0.0019604
0
VERTEX
8
0
10
63.1319656
20
14.4528936
42
0.0026225
0
VERTEX
8
0
10
63.2575935
20
15.6056613
42
0.0045966
0
VERTEX
8
0
10
63.3664851
20
16.7528386
42
0.0066118
0
VERTEX
8
0
10
63.4249395
20
17.5562855
42
0.0139734
0
VERTEX
8
0
10
63.4475709
20
18.2144976
42
0.0271959
0
VERTEX
8
0
10
63.4025644
20
19.0921112
42
0.0459605
0
VERTEX
8
0
10
63.2124357
20
20.0593507
42
0.0761442
0
VERTEX
8
0
10
62.7805951
20
20.9915414
42
0.0933117
0
VERTEX
8
0
10
62.0529736
20
21.7045311
42
0.0518895
0
VERTEX
8
0
10
61.2266675
20
22.1467048
42
0.0337391
0
VERTEX
8
0
10
60.2945951
20
22.4588878
42
-0.0128544
0
VERTEX
8
0
10
60.3261863
20
22.3733327
42
-0.0372817
0
VERTEX
8
0
10
60.4421149
20
21.9030027
42
-0.0207757
0
VERTEX
8
0
10
60.5211717
20
21.3011636
42
-0.0137541
0
VERTEX
8
0
10
60.5696516
20
20.5343636
42
-0.0094954
0
VERTEX
8
0
10
60.585639
20
19.6212097
42
-0.0108923
0
VERTEX
8
0
10
60.5417279
20
17.7614355
42
-0.0117551
0
VERTEX
8
0
10
60.2978637
20
14.2788914
42
-0.0079508
0
VERTEX
8
0
10
59.8489343
20
10.1577353
42
-0.0052388
0
VERTEX
8
0
10
59.2759415
20
5.9178927
42
0.00248
0
VERTEX
8
0
10
59.1412446
20
4.9255857
42
0.0032332
0
VERTEX
8
0
10
59.0331004
20
4.0551096
42
0.0054486
0
VERTEX
8
0
10
58.9383771
20
3.1713546
42
0.0073747
0
VERTEX
8
0
10
58.8862783
20
2.5330744
42
0.0158556
0
VERTEX
8
0
10
58.8636294
20
1.9402926
42
0.016509
0
VERTEX
8
0
10
58.8705864
20
1.7234069
42
0.0606537
0
VERTEX
8
0
10
58.9715449
20
1.1617804
42
0.1543515
0
VERTEX
8
0
10
59.4699708
20
0.4244391
42
0.0371669
0
VERTEX
8
0
10
59.6598761
20
0.298497
42
0.0634316
0
VERTEX
8
0
10
60.1900753
20
0.0899232
42
0.0382167
0
VERTEX
8
0
10
60.7790999
20
-0.0151377
42
0.0265026
0
VERTEX
8
0
10
61.4587707
20
-0.0485074
42
0.0063866
0
VERTEX
8
0
10
61.56548
20
-0.0468809
42
0.0035661
0
VERTEX
8
0
10
61.7079686
20
-0.0420018
42
0.0026247
0
VERTEX
8
0
10
61.9261837
20
-0.0318536
42
0.0015558
0
VERTEX
8
0
10
62.1634059
20
-0.0189008
42
0.0012459
0
VERTEX
8
0
10
62.4774244
20
0
42
-0.0146814
0
VERTEX
8
0
10
62.4232659
20
0.3917385
42
-0.0126578
0
VERTEX
8
0
10
62.3720717
20
1.0106423
42
-0.0089177
0
VERTEX
8
0
10
62.3409977
20
1.7849177
42
-0.0059186
0
VERTEX
8
0
10
62.3319025
20
2.6072682
42
-0.0607191
0
VERTEX
8
0
10
62.7684683
20
6.1361756
42
-0.011605
0
VERTEX
8
0
10
62.9730968
20
6.8927455
42
-0.0235509
0
VERTEX
8
0
10
63.3595684
20
8.0120801
42
-0.0337636
0
VERTEX
8
0
10
63.8477561
20
9.0344878
42
-0.0091585
0
VERTEX
8
0
10
64.0526348
20
9.3794923
42
-0.0277359
0
VERTEX
8
0
10
64.5900034
20
10.1536141
42
-0.0387827
0
VERTEX
8
0
10
65.1938342
20
10.8171316
42
-0.0040125
0
VERTEX
8
0
10
65.2472342
20
10.8660629
42
-0.0334629
0
VERTEX
8
0
10
65.6111838
20
11.1553876
42
-0.053255
0
VERTEX
8
0
10
66.0060178
20
11.3720587
42
-0.0972656
0
VERTEX
8
0
10
66.479278
20
11.4719806
42
-0.1821478
0
VERTEX
8
0
10
67.0250598
20
11.2884337
42
-0.1249919
0
VERTEX
8
0
10
67.2989764
20
10.8837402
42
-0.0587099
0
VERTEX
8
0
10
67.4153178
20
10.415241
42
-0.0345402
0
VERTEX
8
0
10
67.4494242
20
9.871239
42
-0.0160101
0
VERTEX
8
0
10
67.4285105
20
9.2804252
42
-0.0137163
0
VERTEX
8
0
10
67.3401595
20
8.3533253
42
-0.0096093
0
VERTEX
8
0
10
67.1765706
20
7.199547
42
-0.006351
0
VERTEX
8
0
10
66.9643513
20
5.9785268
42
0.0032173
0
VERTEX
8
0
10
66.8029754
20
5.081045
42
0.0042518
0
VERTEX
8
0
10
66.6741263
20
4.2982196
42
0.0073103
0
VERTEX
8
0
10
66.5624428
20
3.510176
42
0.0101929
0
VERTEX
8
0
10
66.5024895
20
2.9482998
42
0.0203503
0
VERTEX
8
0
10
66.479278
20
2.4738732
42
0.0294962
0
VERTEX
8
0
10
66.5111045
20
1.9026439
42
0.0615585
0
VERTEX
8
0
10
66.6878552
20
1.1511591
42
0.1472951
0
VERTEX
8
0
10
67.3402829
20
0.2667903
42
0.0474993
0
VERTEX
8
0
10
67.7049102
20
0.0522988
42
0.0539098
0
VERTEX
8
0
10
68.4392045
20
-0.1935993
42
0.0337496
0
VERTEX
8
0
10
69.2934604
20
-0.3243927
42
0.0224654
0
VERTEX
8
0
10
70.2385951
20
-0.3638048
42
0.0027287
0
VERTEX
8
0
10
70.4967935
20
-0.3624727
42
0.0034721
0
VERTEX
8
0
10
70.7256815
20
-0.3584758
42
0.0056444
0
VERTEX
8
0
10
70.9616574
20
-0.3501622
42
0.0072477
0
VERTEX
8
0
10
71.1359805
20
-0.3395511
42
-0.0113577
0
VERTEX
8
0
10
70.9791408
20
-0.2489398
42
-0.0481373
0
VERTEX
8
0
10
70.5016225
20
0.1045089
42
-0.0820223
0
VERTEX
8
0
10
70.0688196
20
0.642722
42
-0.0341811
0
VERTEX
8
0
10
69.9733829
20
0.8492261
42
-0.0440942
0
VERTEX
8
0
10
69.8458088
20
1.3089925
42
-0.0280911
0
VERTEX
8
0
10
69.7757684
20
1.8460966
42
-0.0194766
0
VERTEX
8
0
10
69.753522
20
2.4617463
42
-0.0177541
0
VERTEX
8
0
10
69.7821647
20
3.1668542
42
-0.0111472
0
VERTEX
8
0
10
69.8680925
20
4.0526311
42
-0.0079172
0
VERTEX
8
0
10
70.0195543
20
5.1743665
42
-0.0055223
0
VERTEX
8
0
10
70.2264682
20
6.4514732
42
0.0041287
0
VERTEX
8
0
10
70.3695027
20
7.3215054
42
0.0086046
0
VERTEX
8
0
10
70.5508089
20
8.6237253
42
0.011253
0
VERTEX
8
0
10
70.6577316
20
9.7000038
42
0.018485
0
VERTEX
8
0
10
70.6994148
20
10.7079903
42
0.0204227
0
VERTEX
8
0
10
70.6781784
20
11.2481211
42
0.0486104
0
VERTEX
8
0
10
70.519695
20
12.1590264
42
0.0839201
0
VERTEX
8
0
10
70.0809463
20
13.1091023
42
0.1040349
0
VERTEX
8
0
10
69.5267894
20
13.6310506
42
0.0882408
0
VERTEX
8
0
10
68.7533664
20
13.9243356
42
0.0499191
0
VERTEX
8
0
10
67.9951317
20
13.9943608
42
0.0373764
0
VERTEX
8
0
10
67.6408743
20
13.9674781
42
0.0895712
0
VERTEX
8
0
10
66.5842462
20
13.5899097
42
0.0497543
0
VERTEX
8
0
10
65.69012
20
12.9589656
42
0.0325929
0
VERTEX
8
0
10
64.8300294
20
12.1147024
42
0.0527318
0
SEQEND
0
POLYLINE
8
0
66
1
70
1
0
VERTEX
8
0
10
19.7667317
20
4.5839415
42
0.038267
0
VERTEX
8
0
10
19.8215482
20
3.819439
42
0.0572557
0
VERTEX
8
0
10
20.0182348
20
3.0804769
42
0.038402
0
VERTEX
8
0
10
20.1911707
20
2.7285366
42
0.0815219
0
VERTEX
8
0
10
20.5245282
20
2.3211864
42
0.1850445
0
VERTEX
8
0
10
21.3897378
20
2.0130549
42
0.0004023
0
VERTEX
8
0
10
21.3917268
20
2.0130537
42
0.1410065
0
VERTEX
8
0
10
22.5043634
20
2.3465415
42
0.0610874
0
VERTEX
8
0
10
23.1556172
20
2.8768164
42
0.0293313
0
VERTEX
8
0
10
23.5624292
20
3.3470049
42
0.0507375
0
VERTEX
8
0
10
24.4642615
20
4.8156717
42
0.0347403
0
VERTEX
8
0
10
25.0882376
20
6.3704866
42
0.0069506
0
VERTEX
8
0
10
25.2116781
20
6.7667707
42
0.0379518
0
VERTEX
8
0
10
25.7117676
20
9.0480831
42
0.0341594
0
VERTEX
8
0
10
25.8301463
20
10.7322439
42
0.0068432
0
VERTEX
8
0
10
25.8159353
20
11.8371591
42
0.0098148
0
VERTEX
8
0
10
25.7684969
20
12.8759945
42
0.013746
0
VERTEX
8
0
10
25.6877823
20
13.7505905
42
0.000544
0
VERTEX
8
0
10
25.6846243
20
13.776078
42
-0.0019261
0
VERTEX
8
0
10
26.0187264
20
13.7971577
42
-0.0019809
0
VERTEX
8
0
10
26.2361484
20
13.8091573
42
-0.0037315
0
VERTEX
8
0
10
26.4746884
20
13.8197038
42
-0.005913
0
VERTEX
8
0
10
26.6543683
20
13.8242803
42
-0.0029472
0
VERTEX
8
0
10
26.703278
20
13.8245854
42
-0.0320905
0
VERTEX
8
0
10
27.3842693
20
13.7839712
42
-0.0479993
0
VERTEX
8
0
10
28.0056744
20
13.6468907
42
-0.0777972
0
VERTEX
8
0
10
28.5708098
20
13.3637659
42
-0.1432326
0
VERTEX
8
0
10
29.0337491
20
12.7466358
42
-0.060568
0
VERTEX
8
0
10
29.1693145
20
12.2136756
42
-0.0344287
0
VERTEX
8
0
10
29.2014049
20
11.714517
42
-0.0245741
0
VERTEX
8
0
10
29.1809408
20
11.442374
42
-0.0076824
0
VERTEX
8
0
10
29.1237566
20
11.0009852
42
-0.003545
0
VERTEX
8
0
10
29.0416228
20
10.4560379
42
-0.0024324
0
VERTEX
8
0
10
28.9141788
20
9.6728654
42
-0.0013768
0
VERTEX
8
0
10
28.7796316
20
8.8826353
42
-0.0010241
0
VERTEX
8
0
10
28.619317
20
7.9673268
42
0.0092418
0
VERTEX
8
0
10
28.3123567
20
6.0412453
42
0.0119006
0
VERTEX
8
0
10
28.1242813
20
4.4289832
42
0.0174036
0
VERTEX
8
0
10
28.0402897
20
2.9978251
42
0.0050907
0
VERTEX
8
0
10
28.0372293
20
2.704283
42
0.0529338
0
VERTEX
8
0
10
28.2251951
20
0.8397829
42
0.0617684
0
VERTEX
8
0
10
28.7890926
20
-0.8003707
42
-0.0447182
0
VERTEX
8
0
10
27.7027417
20
-0.5174972
42
-0.0712035
0
VERTEX
8
0
10
26.6812846
20
0.018165
42
-0.0621086
0
VERTEX
8
0
10
26.1211902
20
0.5457073
42
-0.0952558
0
VERTEX
8
0
10
25.526188
20
1.6665952
42
-0.0527731
0
VERTEX
8
0
10
25.3087611
20
2.75172
42
-0.0249951
0
VERTEX
8
0
10
25.2723122
20
3.5167805
42
-0.0113745
0
VERTEX
8
0
10
25.2776414
20
3.7105847
42
-0.0052525
0
VERTEX
8
0
10
25.2898999
20
3.92025
42
-0.0038679
0
VERTEX
8
0
10
25.3121877
20
4.2113532
42
-0.0022918
0
VERTEX
8
0
10
25.3376334
20
4.4986105
42
-0.0017555
0
VERTEX
8
0
10
25.3693268
20
4.826478
42
-0.0785616
0
VERTEX
8
0
10
24.3485829
20
2.5749758
42
-0.0711431
0
VERTEX
8
0
10
23.0409756
20
1.1156683
42
-0.0461225
0
VERTEX
8
0
10
21.9234339
20
0.3292866
42
-0.0753921
0
VERTEX
8
0
10
20.5700953
20
-0.2019831
42
-0.0537117
0
VERTEX
8
0
10
19.7546049
20
-0.2910439
42
-0.0944475
0
VERTEX
8
0
10
18.4640449
20
-0.06125
42
-0.1303815
0
VERTEX
8
0
10
17.1594634
20
0.9095122
42
-0.0967316
0
VERTEX
8
0
10
16.4544138
20
2.2561942
42
-0.0529467
0
VERTEX
8
0
10
16.211454
20
3.5278379
42
-0.0226377
0
VERTEX
8
0
10
16.1771903
20
4.3171512
42
-0.0918238
0
VERTEX
8
0
10
16.9654341
20
8.597922
42
-0.1187012
0
VERTEX
8
0
10
19.3301659
20
12.1147024
42
-0.0794062
0
VERTEX
8
0
10
20.8335551
20
13.1262061
42
-0.1080103
0
VERTEX
8
0
10
22.8469463
20
13.5577951
42
-0.0777632
0
VERTEX
8
0
10
24.4033565
20
13.305774
42
-0.0302239
0
VERTEX
8
0
10
25.1267903
20
13.0242147
42
0.150824
0
VERTEX
8
0
10
21.8541629
20
10.5622699
42
0.0312518
0
VERTEX
8
0
10
21.2219513
20
9.592322
42
0.050554
0
VERTEX
8
0
10
20.2271723
20
7.3742965
42
0.079354
0
SEQEND
0
POLYLINE
8
0
66
1
70
1
0
VERTEX
8
0
10
46.3972488
20
4.5839415
42
0.038267
0
VERTEX
8
0
10
46.4520653
20
3.819439
42
0.0572557
0
VERTEX
8
0
10
46.6487519
20
3.0804769
42
0.038402
0
VERTEX
8
0
10
46.8216878
20
2.7285366
42
0.0815219
0
VERTEX
8
0
10
47.1550453
20
2.3211864
42
0.1850445
0
VERTEX
8
0
10
48.0202549
20
2.0130549
42
0.0004023
0
VERTEX
8
0
10
48.0222439
20
2.0130537
42
0.1410065
0
VERTEX
8
0
10
49.1348805
20
2.3465415
42
0.0610874
0
VERTEX
8
0
10
49.7861343
20
2.8768164
42
0.0293313
0
VERTEX
8
0
10
50.1929463
20
3.3470049
42
0.0507375
0
VERTEX
8
0
10
51.0947786
20
4.8156717
42
0.0347403
0
VERTEX
8
0
10
51.7187547
20
6.3704866
42
0.0069506
0
VERTEX
8
0
10
51.8421952
20
6.7667707
42
0.0379518
0
VERTEX
8
0
10
52.3422847
20
9.0480831
42
0.0341594
0
VERTEX
8
0
10
52.4606634
20
10.7322439
42
0.0068432
0
VERTEX
8
0
10
52.4464523
20
11.8371591
42
0.0098148
0
VERTEX
8
0
10
52.399014
20
12.8759945
42
0.013746
0
VERTEX
8
0
10
52.3182994
20
13.7505905
42
0.000544
0
VERTEX
8
0
10
52.3151414
20
13.776078
42
-0.0019261
0
VERTEX
8
0
10
52.6492435
20
13.7971577
42
-0.0019809
0
VERTEX
8
0
10
52.8666655
20
13.8091573
42
-0.0037315
0
VERTEX
8
0
10
53.1052055
20
13.8197038
42
-0.005913
0
VERTEX
8
0
10
53.2848853
20
13.8242803
42
-0.0029472
0
VERTEX
8
0
10
53.3337951
20
13.8245854
42
-0.0320905
0
VERTEX
8
0
10
54.0147864
20
13.7839712
42
-0.0479993
0
VERTEX
8
0
10
54.6361915
20
13.6468907
42
-0.0777972
0
VERTEX
8
0
10
55.2013268
20
13.3637659
42
-0.1432326
0
VERTEX
8
0
10
55.6642662
20
12.7466358
42
-0.060568
0
VERTEX
8
0
10
55.7998316
20
12.2136756
42
-0.0344287
0
VERTEX
8
0
10
55.831922
20
11.714517
42
-0.0245741
0
VERTEX
8
0
10
55.8114579
20
11.442374
42
-0.0076824
0
VERTEX
8
0
10
55.7542737
20
11.0009852
42
-0.003545
0
VERTEX
8
0
10
55.6721399
20
10.4560379
42
-0.0024324
0
VERTEX
8
0
10
55.5446959
20
9.6728654
42
-0.0013768
0
VERTEX
8
0
10
55.4101486
20
8.8826353
42
-0.0010241
0
VERTEX
8
0
10
55.2498341
20
7.9673268
42
0.0092418
0
VERTEX
8
0
10
54.9428738
20
6.0412453
42
0.0119006
0
VERTEX
8
0
10
54.7547984
20
4.4289832
42
0.0174036
0
VERTEX
8
0
10
54.6708068
20
2.9978251
42
0.0050907
0
VERTEX
8
0
10
54.6677464
20
2.704283
42
0.0529338
0
VERTEX
8
0
10
54.8557122
20
0.8397829
42
0.0617684
0
VERTEX
8
0
10
55.4196097
20
-0.8003707
42
-0.0447182
0
VERTEX
8
0
10
54.3332587
20
-0.5174972
42
-0.0712035
0
VERTEX
8
0
10
53.3118017
20
0.018165
42
-0.0621086
0
VERTEX
8
0
10
52.7517073
20
0.5457073
42
-0.0952558
0
VERTEX
8
0
10
52.1567051
20
1.6665952
42
-0.0527731
0
VERTEX
8
0
10
51.9392782
20
2.75172
42
-0.0249951
0
VERTEX
8
0
10
51.9028293
20
3.5167805
42
-0.0113745
0
VERTEX
8
0
10
51.9081585
20
3.7105847
42
-0.0052525
0
VERTEX
8
0
10
51.920417
20
3.92025
42
-0.0038679
0
VERTEX
8
0
10
51.9427048
20
4.2113532
42
-0.0022918
0
VERTEX
8
0
10
51.9681505
20
4.4986105
42
-0.0017555
0
VERTEX
8
0
10
51.9998439
20
4.826478
42
-0.0785616
0
VERTEX
8
0
10
50.9791
20
2.5749758
42
-0.0711431
0
VERTEX
8
0
10
49.6714927
20
1.1156683
42
-0.0461225
0
VERTEX
8
0
10
48.553951
20
0.3292866
42
-0.0753921
0
VERTEX
8
0
10
47.2006124
20
-0.2019831
42
-0.0537117
0
VERTEX
8
0
10
46.3851219
20
-0.2910439
42
-0.0944475
0
VERTEX
8
0
10
45.094562
20
-0.06125
42
-0.1303815
0
VERTEX
8
0
10
43.7899805
20
0.9095122
42
-0.0967316
0
VERTEX
8
0
10
43.0849309
20
2.2561942
42
-0.0529467
0
VERTEX
8
0
10
42.8419711
20
3.5278379
42
-0.0226377
0
VERTEX
8
0
10
42.8077074
20
4.3171512
42
-0.0918238
0
VERTEX
8
0
10
43.5959512
20
8.597922
42
-0.1187012
0
VERTEX
8
0
10
45.9606829
20
12.1147024
42
-0.0794062
0
VERTEX
8
0
10
47.4640722
20
13.1262061
42
-0.1080103
0
VERTEX
8
0
10
49.4774634
20
13.5577951
42
-0.0777632
0
VERTEX
8
0
10
51.0338735
20
13.305774
42
-0.0302239
0
VERTEX
8
0
10
51.7573073
20
13.0242147
42
0.150824
0
VERTEX
8
0
10
48.48468
20
10.5622699
42
0.0312518
0
VERTEX
8
0
10
47.8524683
20
9.592322
42
0.050554
0
VERTEX
8
0
10
46.8576894
20
7.3742965
42
0.079354
0
SEQEND
0
POLYLINE
8
0
66
1
70
1
0
VERTEX
8
0
10
36.4690853
20
9.6080934
42
0.0204448
0
VERTEX
8
0
10
35.9196682
20
7.8824391
42
0.0060177
0
VERTEX
8
0
10
35.9737994
20
8.2193678
42
0.0368686
0
VERTEX
8
0
10
36.1379513
20
10.513961
42
0.0197395
0
VERTEX
8
0
10
36.1224536
20
10.9132966
42
0.1328785
0
VERTEX
8
0
10
35.4345951
20
12.9150731
42
0.073035
0
VERTEX
8
0
10
34.8244152
20
13.5682734
42
0.0563012
0
VERTEX
8
0
10
33.9616767
20
14.1095444
42
0.0376549
0
VERTEX
8
0
10
32.960722
20
14.5036878
42
-0.0293394
0
VERTEX
8
0
10
33.2425759
20
13.0237883
42
-0.0328024
0
VERTEX
8
0
10
33.3730341
20
10.9505268
42
-0.0045595
0
VERTEX
8
0
10
33.3703562
20
10.6639554
42
-0.0154817
0
VERTEX
8
0
10
33.2968636
20
9.2615303
42
-0.0105135
0
VERTEX
8
0
10
33.1322975
20
7.6745302
42
-0.0081312
0
VERTEX
8
0
10
32.8637073
20
5.7723707
42
0.0009692
0
VERTEX
8
0
10
32.7234322
20
4.8665451
42
0.0012982
0
VERTEX
8
0
10
32.6057032
20
4.0831138
42
0.0022799
0
VERTEX
8
0
10
32.4941899
20
3.3045568
42
0.0032917
0
VERTEX
8
0
10
32.4223227
20
2.7604674
42
0.0070153
0
VERTEX
8
0
10
32.3722867
20
2.3164139
42
0.0214811
0
VERTEX
8
0
10
32.3543806
20
2.0373074
42
0.026113
0
VERTEX
8
0
10
32.3727534
20
1.6680013
42
0.0608081
0
VERTEX
8
0
10
32.4966398
20
1.1044533
42
0.1403124
0
VERTEX
8
0
10
32.960722
20
0.4365658
42
0.0331899
0
VERTEX
8
0
10
33.1256475
20
0.3221453
42
0.0669943
0
VERTEX
8
0
10
33.6588385
20
0.099559
42
0.0410618
0
VERTEX
8
0
10
34.269851
20
-0.0142823
42
0.0271786
0
VERTEX
8
0
10
34.9495219
20
-0.0485074
42
0.0015673
0
VERTEX
8
0
10
34.9632854
20
-0.0484626
42
0.0065498
0
VERTEX
8
0
10
35.088404
20
-0.0456478
42
0.0033281
0
VERTEX
8
0
10
35.2655652
20
-0.0383753
42
0.0015157
0
VERTEX
8
0
10
35.4226992
20
-0.0304947
42
0.0014204
0
VERTEX
8
0
10
35.6724894
20
-0.016485
42
0.0009448
0
VERTEX
8
0
10
35.9439219
20
0
42
-0.0001309
0
VERTEX
8
0
10
35.9306661
20
0.1996046
42
-0.0004849
0
VERTEX
8
0
10
35.8955008
20
0.7385904
42
-0.0007302
0
VERTEX
8
0
10
35.8663246
20
1.2027494
42
-0.0008338
0
VERTEX
8
0
10
35.8490778
20
1.4916147
42
-0.001867
0
VERTEX
8
0
10
35.8327865
20
1.7896178
42
-0.0037684
0
VERTEX
8
0
10
35.8245487
20
1.9762943
42
-0.0080656
0
VERTEX
8
0
10
35.8226536
20
2.061561
42
-0.0119565
0
VERTEX
8
0
10
35.8485535
20
3.1620352
42
-0.0340855
0
VERTEX
8
0
10
36.150078
20
5.8087512
42
-0.0104566
0
VERTEX
8
0
10
36.3265115
20
6.6610303
42
-0.0191048
0
VERTEX
8
0
10
36.6209402
20
7.7604128
42
-0.0258001
0
VERTEX
8
0
10
36.9625757
20
8.6949366
42
-0.0144949
0
VERTEX
8
0
10
37.2314769
20
9.2754315
42
-0.0235225
0
VERTEX
8
0
10
37.5878653
20
9.9151988
42
-0.0334751
0
VERTEX
8
0
10
37.9812292
20
10.4654537
42
-0.0111946
0
VERTEX
8
0
10
38.0860355
20
10.5862708
42
-0.036367
0
VERTEX
8
0
10
38.34741
20
10.8379296
42
-0.0569644
0
VERTEX
8
0
10
38.6197825
20
11.017793
42
-0.1160899
0
VERTEX
8
0
10
38.9756292
20
11.1081757
42
-0.0333905
0
VERTEX
8
0
10
39.0936725
20
11.1006544
42
-0.2246161
0
VERTEX
8
0
10
39.4773065
20
10.8752307
42
-0.0970117
0
VERTEX
8
0
10
39.5802062
20
10.6153337
42
-0.0508237
0
VERTEX
8
0
10
39.6062244
20
10.3320586
42
-0.021812
0
VERTEX
8
0
10
39.589658
20
9.9445921
42
-0.1502985
0
VERTEX
8
0
10
38.854361
20
8.0522146
42
0.0179213
0
VERTEX
8
0
10
39.0750887
20
7.9680385
42
0.0332488
0
VERTEX
8
0
10
39.3709532
20
7.8877918
42
0.0483064
0
VERTEX
8
0
10
39.6547317
20
7.8581854
42
0.0107804
0
VERTEX
8
0
10
39.7869471
20
7.8610056
42
0.1244858
0
VERTEX
8
0
10
40.9128687
20
8.1790652
42
0.1067774
0
VERTEX
8
0
10
41.6799122
20
8.9010927
42
0.1593036
0
VERTEX
8
0
10
42.4196487
20
11.1930635
42
0.0117662
0
VERTEX
8
0
10
42.4136582
20
11.4525839
42
0.0499468
0
VERTEX
8
0
10
42.2944605
20
12.2949765
42
0.0877696
0
VERTEX
8
0
10
41.8860683
20
13.2303708
42
0.175603
0
VERTEX
8
0
10
40.9611725
20
13.9254725
42
0.0752961
0
VERTEX
8
0
10
40.2974537
20
14.0186146
42
0.0593509
0
VERTEX
8
0
10
39.9224949
20
13.9728145
42
0.0832686
0
VERTEX
8
0
10
39.2282319
20
13.6639889
42
0.0473632
0
VERTEX
8
0
10
38.6147844
20
13.175214
42
0.0309741
0
VERTEX
8
0
10
38.0176098
20
12.5270146
42
0.0122281
0
VERTEX
8
0
10
37.8378856
20
12.2966508
42
0.0425203
0
VERTEX
8
0
10
37.1037778
20
11.0872526
42
0.0288054
0
SEQEND
0
ENDSEC
0
EOF